<?xml version="1.0" encoding="utf-8"?>
<!-- Generator: Adobe Illustrator 16.0.3, SVG Export Plug-In . SVG Version: 6.00 Build 0)  -->
<!DOCTYPE svg PUBLIC "-//W3C//DTD SVG 1.1//EN" "http://www.w3.org/Graphics/SVG/1.1/DTD/svg11.dtd">
<svg version="1.1" id="Capa_1" xmlns="http://www.w3.org/2000/svg" xmlns:xlink="http://www.w3.org/1999/xlink" x="0px" y="0px"
	 width="315px" height="315px" viewBox="0 0 315 315" enable-background="new 0 0 315 315" xml:space="preserve">
<path fill="#FFFFFF" d="M284.022,155.979c0,68.185-55.273,123.458-123.457,123.458S37.109,224.164,37.109,155.979
	c0-68.184,55.272-123.458,123.456-123.458S284.022,87.795,284.022,155.979"/>
<g opacity="0.5">
	<g>
		<defs>
			<rect id="SVGID_1_" x="69.228" y="87.477" width="185.882" height="136.044"/>
		</defs>
		<clipPath id="SVGID_2_">
			<use xlink:href="#SVGID_1_"  overflow="visible"/>
		</clipPath>
		<rect x="103.048" y="87.476" clip-path="url(#SVGID_2_)" fill="#AEDFB9" width="16.782" height="16.782"/>
		<rect x="204.761" y="87.477" clip-path="url(#SVGID_2_)" fill="#AEDFB9" width="16.782" height="16.783"/>
		<path clip-path="url(#SVGID_2_)" fill="#AEDFB9" d="M238.836,156.641v-18.053h-17.293v-17.547h-16.781v-16.783h-16.783v16.783
			h-51.366v-16.783h-16.783v16.783h-16.781v17.547H85.756v18.053H69.228v15.515v34.328h16.274v-34.328h17.546v34.328h16.527v17.037
			h34.074v-18.055h-33.82v-16.656h85.06v16.656h-33.947v18.055h34.074v-17.037h17.291v-34.328h16.529v34.328h16.273v-34.328v-15.515
			H238.836z M204.762,156.641h-17.8v-18.053h17.8V156.641z M119.829,138.588h16.783v18.055h-16.783V138.588z"/>
	</g>
</g>
<circle fill="none" stroke="#000000" stroke-miterlimit="10" cx="160.566" cy="155.979" r="123.457"/>
<path d="M78.431,179.977h16.708l-7.045,5.682c1.114,0.186,2.107,0.535,2.98,1.045c0.872,0.51,1.609,1.137,2.213,1.879
	c0.604,0.744,1.063,1.57,1.379,2.479c0.316,0.91,0.473,1.848,0.473,2.813c0,1.17-0.218,2.26-0.653,3.273
	c-0.438,1.012-1.03,1.896-1.782,2.658s-1.634,1.359-2.646,1.797c-1.012,0.436-2.102,0.654-3.271,0.654
	c-1.151,0-2.232-0.219-3.244-0.654c-1.012-0.438-1.895-1.035-2.646-1.797c-0.751-0.762-1.35-1.652-1.795-2.674
	c-0.445-1.02-0.669-2.115-0.669-3.285h2.2c0,0.873,0.162,1.686,0.487,2.438s0.766,1.406,1.323,1.963
	c0.557,0.557,1.211,0.998,1.963,1.322c0.752,0.326,1.546,0.488,2.381,0.488c0.854,0,1.657-0.162,2.409-0.488
	c0.752-0.324,1.405-0.766,1.963-1.322c0.557-0.557,0.993-1.211,1.309-1.963c0.316-0.752,0.473-1.555,0.473-2.41
	c0-0.854-0.166-1.656-0.501-2.408c-0.334-0.752-0.789-1.406-1.363-1.963c-0.576-0.557-1.244-0.994-2.005-1.309
	c-0.763-0.316-1.569-0.475-2.424-0.475l-4.538,0.029l6.905-5.627H78.431V179.977z"/>
<path d="M109.063,202.256h-8.354v-22.277h8.354c1.15,0,2.232,0.217,3.244,0.652c1.012,0.438,1.898,1.031,2.659,1.783
	c0.762,0.752,1.36,1.635,1.796,2.646c0.437,1.012,0.655,2.102,0.655,3.271v5.57c0,1.168-0.219,2.26-0.655,3.271
	c-0.436,1.012-1.029,1.893-1.781,2.645s-1.639,1.346-2.66,1.783C111.299,202.037,110.213,202.256,109.063,202.256 M102.937,200.027
	h6.126c0.854,0,1.652-0.158,2.395-0.473c0.743-0.316,1.394-0.752,1.95-1.309c0.556-0.557,0.992-1.207,1.308-1.951
	c0.316-0.74,0.475-1.539,0.475-2.393v-5.57c0-0.836-0.163-1.625-0.487-2.367c-0.326-0.742-0.766-1.393-1.323-1.949
	c-0.557-0.557-1.207-0.998-1.95-1.322c-0.741-0.326-1.53-0.488-2.366-0.488h-6.126V200.027z"/>
<path d="M145.208,179.977c1.169,0,2.265,0.219,3.286,0.656c1.021,0.436,1.907,1.029,2.659,1.781s1.346,1.639,1.782,2.66
	c0.436,1.021,0.655,2.107,0.655,3.258c0,1.152-0.22,2.238-0.655,3.258c-0.437,1.021-1.035,1.908-1.796,2.66
	s-1.652,1.346-2.673,1.781c-1.021,0.438-2.107,0.654-3.259,0.654h-6.099v5.57h-2.228v-22.279H145.208z M145.208,194.459
	c0.835,0,1.63-0.158,2.382-0.475c0.752-0.314,1.405-0.752,1.963-1.309c0.557-0.557,0.997-1.207,1.322-1.949
	c0.324-0.742,0.487-1.541,0.487-2.395c0-0.836-0.163-1.625-0.487-2.367c-0.325-0.742-0.766-1.393-1.322-1.949
	c-0.558-0.557-1.211-0.998-1.963-1.322s-1.547-0.488-2.382-0.488h-6.099v12.254H145.208z"/>
<path d="M171.106,195.879l4.762,6.377h-2.813l-5.764-7.826h0.278c0.39,0.02,0.766-0.008,1.128-0.084
	c0.361-0.072,0.71-0.176,1.044-0.305c0.575-0.223,1.104-0.52,1.588-0.891c0.481-0.371,0.895-0.809,1.239-1.311
	c0.343-0.5,0.607-1.047,0.793-1.643c0.186-0.594,0.278-1.217,0.278-1.865c0-0.854-0.157-1.652-0.474-2.395
	c-0.315-0.742-0.751-1.393-1.308-1.949c-0.558-0.557-1.207-0.992-1.949-1.309c-0.743-0.316-1.541-0.475-2.396-0.475h-6.127v20.051
	h-2.228v-22.279h8.327c1.169,0,2.264,0.219,3.285,0.656c1.021,0.436,1.907,1.029,2.659,1.781s1.347,1.639,1.782,2.66
	c0.437,1.021,0.655,2.107,0.655,3.258c0,0.818-0.116,1.605-0.349,2.367c-0.231,0.762-0.557,1.471-0.975,2.131
	c-0.418,0.658-0.919,1.248-1.504,1.768C172.457,195.117,171.811,195.545,171.106,195.879"/>
<polygon points="198.146,182.205 190.905,182.205 190.905,200.027 198.146,200.027 198.146,202.256 181.438,202.256 
	181.438,200.027 188.678,200.027 188.678,182.205 181.438,182.205 181.438,179.977 198.146,179.977 "/>
<polygon points="203.714,202.256 203.714,179.977 218.193,195.99 218.193,179.977 220.422,179.977 220.422,202.256 205.941,186.244 
	205.941,202.256 "/>
<polygon points="242.7,179.977 242.7,182.205 235.46,182.205 235.46,202.256 233.232,202.256 233.232,182.205 225.992,182.205 
	225.992,179.977 "/>
<polygon points="181.861,115.602 162.69,115.602 162.69,162.795 181.861,162.795 181.861,168.693 137.619,168.693 137.619,162.795 
	156.79,162.795 156.79,115.602 137.619,115.602 137.619,109.703 181.861,109.703 "/>
<path d="M78.419,147.973c0.835-2.213,1.646-4.375,2.433-6.49c0.786-2.113,1.523-4.104,2.212-5.973
	c0.688-1.867,1.328-3.576,1.918-5.123c0.591-1.551,1.08-2.84,1.475-3.872v-16.812l-22.121,58.99h6.342
	c0.786-2.113,1.646-4.424,2.58-6.93c0.934-2.508,1.918-5.115,2.95-7.818h10.249v-5.973H78.419z"/>
<path d="M94.567,147.973c-0.836-2.213-1.648-4.363-2.434-6.453c-0.787-2.088-1.537-4.066-2.249-5.936
	c-0.713-1.867-1.363-3.576-1.954-5.125c-0.59-1.549-1.082-2.863-1.475-3.944v21.458H94.567z"/>
<path d="M242.712,147.973c-0.835-2.213-1.646-4.375-2.433-6.49c-0.786-2.113-1.523-4.104-2.212-5.973
	c-0.688-1.867-1.328-3.576-1.918-5.123c-0.59-1.551-1.08-2.84-1.474-3.872v-16.812l22.12,58.99h-6.342
	c-0.786-2.113-1.646-4.424-2.58-6.93c-0.934-2.508-1.918-5.115-2.95-7.818h-10.248v-5.973H242.712z"/>
<path d="M226.564,147.973c0.836-2.213,1.647-4.363,2.433-6.453c0.787-2.088,1.537-4.066,2.249-5.936
	c0.713-1.867,1.364-3.576,1.954-5.125s1.082-2.863,1.475-3.944v21.458H226.564z"/>
<polygon points="200.684,143.106 184.646,118.889 184.646,130.473 200.684,153.944 216.905,129.096 216.905,168.693 
	222.805,168.693 222.805,109.703 "/>
<polygon points="97.797,109.703 97.797,168.693 103.696,168.693 103.696,126.293 135.763,161.754 135.763,151.684 "/>
</svg>
