<?xml version="1.0" encoding="utf-8"?>
<!-- Generator: Adobe Illustrator 16.0.3, SVG Export Plug-In . SVG Version: 6.00 Build 0)  -->
<!DOCTYPE svg PUBLIC "-//W3C//DTD SVG 1.1//EN" "http://www.w3.org/Graphics/SVG/1.1/DTD/svg11.dtd">
<svg version="1.1" id="Capa_1" xmlns="http://www.w3.org/2000/svg" xmlns:xlink="http://www.w3.org/1999/xlink" x="0px" y="0px"
	 width="450px" height="315px" viewBox="0 0 450 315" enable-background="new 0 0 450 315" xml:space="preserve">
<rect x="190.379" y="17.956" fill="#AEDFB9" width="16.782" height="16.783"/>
<rect x="292.092" y="17.957" fill="#AEDFB9" width="16.783" height="16.783"/>
<path fill="#AEDFB9" d="M326.168,87.122V69.068h-17.293V51.522h-16.781V34.739h-16.783v16.783h-51.367V34.739h-16.783v16.783
	h-16.781v17.546h-17.292v18.054h-16.528v15.512v34.329h16.274v-34.329h17.546v34.329h16.527V154h34.074v-18.055h-33.82v-16.656
	h85.06v16.656h-33.947V154h34.074v-17.037h17.291v-34.329h16.529v34.329h16.273v-34.329V87.122H326.168z M292.094,87.122h-17.801
	V69.068h17.801V87.122z M207.161,69.068h16.783v18.054h-16.783V69.068z"/>
<path fill="#FFFFFF" d="M408.771,95.17L216.683,249.757c1.477,1.644,3.002,3.258,4.583,4.838
	c48.213,48.213,126.381,48.213,174.594,0C439.292,211.162,443.591,143.424,408.771,95.17z"/>
<path fill="none" stroke="#000000" stroke-miterlimit="10" d="M408.771,95.17L216.683,249.757c1.477,1.644,3.002,3.258,4.583,4.838
	c48.213,48.213,126.381,48.213,174.594,0C439.292,211.162,443.591,143.424,408.771,95.17z"/>
<path d="M312.157,224.195c0.762-0.172,1.493-0.443,2.195-0.818c0.703-0.374,1.342-0.849,1.92-1.428
	c0.813-0.813,1.427-1.735,1.841-2.766c0.415-1.03,0.62-2.079,0.62-3.143s-0.205-2.108-0.62-3.139
	c-0.413-1.031-1.033-1.961-1.859-2.786l-2.011-2.011l-1.745,1.404l2.2,2.2c0.604,0.604,1.057,1.28,1.357,2.029
	c0.301,0.748,0.453,1.516,0.453,2.304c0,0.787-0.152,1.555-0.453,2.304c-0.301,0.748-0.755,1.424-1.358,2.027
	c-0.459,0.458-0.965,0.834-1.516,1.122c-0.552,0.29-1.127,0.489-1.722,0.602c-0.6,0.11-1.2,0.128-1.804,0.049
	c-0.604-0.078-1.188-0.242-1.753-0.492c-0.327-0.146-0.646-0.318-0.953-0.522c-0.311-0.203-0.595-0.449-0.857-0.739l-0.196-0.195
	l-1.458,9.609l1.988,1.988l1.143-7.876c0.734,0.263,1.494,0.417,2.274,0.463C310.624,224.427,311.396,224.365,312.157,224.195z"/>
<polygon points="336.357,233.369 337.933,231.794 326.119,219.98 324.544,221.556 329.663,226.676 317.062,239.277 311.941,234.158 
	310.366,235.733 322.18,247.548 323.755,245.972 318.636,240.853 331.238,228.25 "/>
<polygon points="326.117,251.485 341.87,235.731 340.786,257.294 352.109,245.971 353.686,247.547 337.932,263.3 339.015,241.738 
	327.692,253.061 "/>
<polygon points="369.438,263.299 367.862,264.874 362.743,259.755 348.564,273.933 346.99,272.358 361.168,258.181 356.049,253.061 
	357.624,251.485 "/>
<path d="M360.393,213.332c0.976-2.155,1.93-4.258,2.87-6.309c0.937-2.051,1.824-3.979,2.658-5.789
	c0.834-1.807,1.59-3.467,2.267-4.979c0.679-1.513,1.244-2.771,1.696-3.778l11.888-11.888l-26.07,57.351l-4.484-4.483
	c0.938-2.049,1.966-4.291,3.076-6.725c1.112-2.434,2.259-4.972,3.441-7.612l-7.247-7.247l4.224-4.223L360.393,213.332z"/>
<path d="M348.976,201.914c2.155-0.973,4.249-1.921,6.282-2.844c2.033-0.92,3.962-1.788,5.788-2.605
	c1.824-0.816,3.493-1.564,5.004-2.242c1.513-0.678,2.791-1.26,3.832-1.746l-15.172,15.172L348.976,201.914z"/>
<polygon points="334.116,180.172 339.899,151.707 331.708,159.898 326.452,187.836 355.493,181.735 327.493,209.734 
	331.666,213.907 373.378,172.195 "/>
<g>
	<path fill="#FFFFFF" d="M48.699,84.915C0.486,133.127,0.487,211.296,48.7,259.509c46.633,46.633,121.286,48.159,169.755,4.583
		L63.869,72.003C58.558,75.836,53.479,80.134,48.699,84.915z"/>
	<g>
		<path fill="none" stroke="#000000" stroke-miterlimit="10" d="M48.699,84.915C0.486,133.127,0.487,211.296,48.7,259.509
			c46.633,46.633,121.286,48.159,169.755,4.583L63.869,72.003C58.558,75.836,53.479,80.134,48.699,84.915z"/>
		<path d="M94.887,247.259l11.814-11.814l-0.964,8.998c0.919-0.656,1.868-1.111,2.846-1.368c0.977-0.256,1.942-0.334,2.893-0.236
			c0.953,0.1,1.862,0.359,2.728,0.777c0.867,0.42,1.641,0.973,2.323,1.654c0.827,0.828,1.444,1.752,1.853,2.777
			c0.406,1.024,0.613,2.069,0.62,3.14s-0.194,2.116-0.601,3.142c-0.408,1.023-1.023,1.949-1.851,2.776
			c-0.814,0.814-1.733,1.424-2.756,1.831c-1.025,0.406-2.072,0.607-3.142,0.601c-1.069-0.007-2.123-0.214-3.16-0.621
			c-1.036-0.406-1.969-1.022-2.796-1.85l1.556-1.557c0.617,0.618,1.307,1.078,2.068,1.38c0.762,0.302,1.536,0.452,2.324,0.452
			c0.787,0,1.562-0.15,2.323-0.453c0.762-0.301,1.438-0.748,2.029-1.339c0.604-0.604,1.057-1.286,1.358-2.049
			c0.303-0.761,0.453-1.534,0.453-2.322c0-0.787-0.154-1.559-0.462-2.313c-0.308-0.756-0.765-1.434-1.37-2.038
			c-0.604-0.604-1.289-1.054-2.057-1.349c-0.768-0.296-1.552-0.437-2.352-0.425c-0.801,0.015-1.583,0.177-2.343,0.493
			c-0.763,0.315-1.445,0.773-2.05,1.378l-3.188,3.229l0.904-8.861l-7.482,7.482L94.887,247.259z"/>
		<path d="M132.3,241.352l-5.908,5.908l-15.752-15.753l5.907-5.907c0.813-0.813,1.732-1.426,2.757-1.831
			c1.023-0.408,2.07-0.615,3.14-0.621c1.07-0.007,2.118,0.194,3.142,0.602c1.024,0.406,1.949,1.022,2.776,1.85l3.939,3.938
			c0.826,0.826,1.443,1.753,1.85,2.777c0.407,1.023,0.61,2.065,0.61,3.129s-0.207,2.11-0.62,3.143
			C133.727,239.616,133.113,240.538,132.3,241.352 M126.393,244.107l4.332-4.331c0.604-0.604,1.057-1.28,1.359-2.027
			c0.302-0.75,0.454-1.518,0.454-2.305c-0.001-0.786-0.152-1.555-0.455-2.305c-0.3-0.747-0.753-1.424-1.356-2.027l-3.939-3.938
			c-0.591-0.591-1.264-1.034-2.018-1.329c-0.755-0.294-1.526-0.443-2.314-0.442c-0.788,0-1.56,0.147-2.314,0.443
			c-0.755,0.294-1.428,0.737-2.019,1.328l-4.332,4.332L126.393,244.107z"/>
		<path d="M142.105,200.04c0.827-0.827,1.756-1.446,2.787-1.86c1.03-0.414,2.077-0.621,3.14-0.621c1.063,0,2.11,0.207,3.141,0.621
			c1.03,0.414,1.954,1.027,2.767,1.84c0.814,0.815,1.427,1.738,1.84,2.768c0.414,1.031,0.618,2.081,0.612,3.15
			c-0.007,1.07-0.218,2.12-0.631,3.149c-0.413,1.032-1.028,1.953-1.842,2.768l-4.313,4.313l3.939,3.938l-1.575,1.575l-15.753-15.753
			L142.105,200.04z M152.346,210.28c0.59-0.591,1.041-1.265,1.349-2.021c0.309-0.754,0.462-1.525,0.462-2.313
			c0-0.787-0.148-1.559-0.443-2.313c-0.295-0.755-0.745-1.435-1.349-2.038c-0.591-0.591-1.264-1.033-2.018-1.329
			c-0.755-0.295-1.526-0.443-2.313-0.443c-0.788,0.001-1.562,0.15-2.323,0.453c-0.761,0.302-1.439,0.749-2.03,1.339l-4.313,4.313
			l8.665,8.665L152.346,210.28z"/>
		<polygon points="151.971,190.175 167.724,205.928 169.299,204.354 155.121,190.175 157.254,188.043 155.849,186.297 		"/>
		<polygon points="115.254,135.853 122.504,128.603 118.333,124.432 111.534,131.231 		"/>
		<polygon points="160.045,166.143 155.874,161.972 145.013,172.832 148.733,177.455 		"/>
		<polygon points="87.049,155.716 91.22,159.887 104.776,146.331 138.146,179.7 124.589,193.256 128.76,197.428 148.733,177.455 
			145.013,172.832 142.318,175.528 108.948,142.159 115.254,135.853 111.534,131.231 		"/>
		<path d="M72.249,224.638c-0.974-2.155-1.929-4.258-2.869-6.31c-0.938-2.05-1.824-3.979-2.659-5.787
			c-0.833-1.808-1.589-3.468-2.266-4.979c-0.678-1.514-1.245-2.772-1.695-3.78l-11.888-11.889l26.069,57.354l4.484-4.484
			c-0.938-2.05-1.964-4.293-3.076-6.725c-1.113-2.434-2.259-4.972-3.441-7.613l7.248-7.247l-4.224-4.224L72.249,224.638z"/>
		<path d="M83.668,213.219c-2.156-0.974-4.251-1.92-6.284-2.842c-2.033-0.92-3.962-1.789-5.787-2.607
			c-1.825-0.816-3.493-1.564-5.005-2.241c-1.513-0.679-2.791-1.261-3.832-1.746l15.172,15.172L83.668,213.219z"/>
		<polygon points="58.891,183.875 100.602,225.586 104.773,221.414 74.794,191.435 122.541,193.833 115.421,186.713 		"/>
	</g>
</g>
</svg>
